<svg preserveAspectRatio="none" overflow="visible" style="display: block;" width="18" height="18" viewBox="0 0 18 18" fill="none" xmlns="http://www.w3.org/2000/svg">
<g id="notebook-pen" clip-path="url(#clip0_0_79)">
<path id="Vector" d="M10.05 1.4994H4.49962C4.10177 1.4994 3.72021 1.65745 3.43888 1.93877C3.15756 2.2201 2.99951 2.60166 2.99951 2.99952V15.0005C2.99951 15.3983 3.15756 15.7799 3.43888 16.0612C3.72021 16.3426 4.10177 16.5006 4.49962 16.5006H13.5003C13.8981 16.5006 14.2797 16.3426 14.561 16.0612C14.8423 15.7799 15.0004 15.3983 15.0004 15.0005V9.45004M1.4994 4.49964H4.49962M1.4994 7.49988H4.49962M1.4994 10.5001H4.49962M1.4994 13.5004H4.49962M16.034 4.21923C16.3327 3.92044 16.5006 3.51519 16.5006 3.09264C16.5006 2.67009 16.3327 2.26484 16.034 1.96605C15.7352 1.66726 15.3299 1.4994 14.9074 1.4994C14.4848 1.4994 14.0796 1.66726 13.7808 1.96605L10.023 5.72535C9.84468 5.90358 9.71415 6.12388 9.64348 6.3659L9.01569 8.51857C8.99686 8.58311 8.99573 8.65153 9.01242 8.71666C9.0291 8.78178 9.06299 8.84123 9.11053 8.88877C9.15807 8.93631 9.21751 8.97019 9.28264 8.98688C9.34776 9.00356 9.41618 9.00243 9.48072 8.98361L11.6334 8.35581C11.8754 8.28514 12.0957 8.15461 12.2739 7.97628L16.034 4.21923Z" stroke="#5F2E8C" stroke-width="2" stroke-linecap="round"/>
</g>
<defs>
<clipPath id="clip0_0_79">
<rect width="18" height="18" fill="white"/>
</clipPath>
</defs>
</svg>
